<svg xmlns="http://www.w3.org/2000/svg" width="39.162" height="99.857" viewBox="0 0 39.162 99.857">
  <g id="visual_terminal" transform="translate(0.003)">
    <path id="Tracé_495" data-name="Tracé 495" d="M33.53,61.432H5.548A5.553,5.553,0,0,1,0,55.884V5.548A5.607,5.607,0,0,1,5.548,0H33.53A5.624,5.624,0,0,1,39.16,5.548V55.8A5.64,5.64,0,0,1,33.53,61.432Z" transform="translate(0)" fill="#a4abb5"/>
    <rect id="Rectangle_1071" data-name="Rectangle 1071" width="29.941" height="38.752" transform="translate(4.568 11.014)" fill="#eef0f1"/>
    <path id="Tracé_496" data-name="Tracé 496" d="M30.891,111.479H10.332a3.224,3.224,0,0,1-3.182-3.1L5.6,63.1H35.541l-1.55,45.278A3.1,3.1,0,0,1,30.891,111.479Z" transform="translate(-1.032 -11.621)" fill="#a4abb4"/>
    <rect id="Rectangle_1072" data-name="Rectangle 1072" width="19.417" height="11.585" transform="translate(9.871 15.338)" fill="#b5b9c5"/>
    <path id="Tracé_497" data-name="Tracé 497" d="M30.456,40.821h-17.3A1.08,1.08,0,0,1,12.1,39.761h0A1.08,1.08,0,0,1,13.161,38.7H30.375a1.08,1.08,0,0,1,1.061,1.061h0A.963.963,0,0,1,30.456,40.821Z" transform="translate(-2.229 -7.127)" fill="#b5b9c5"/>
    <path id="Tracé_498" data-name="Tracé 498" d="M30.456,46.821h-17.3A1.08,1.08,0,0,1,12.1,45.761h0A1.08,1.08,0,0,1,13.161,44.7H30.375a1.08,1.08,0,0,1,1.061,1.061h0A.963.963,0,0,1,30.456,46.821Z" transform="translate(-2.229 -8.233)" fill="#b5b9c5"/>
    <path id="Tracé_499" data-name="Tracé 499" d="M30.456,52.821h-17.3A1.08,1.08,0,0,1,12.1,51.761h0A1.08,1.08,0,0,1,13.161,50.7H30.375a1.08,1.08,0,0,1,1.061,1.061h0A.963.963,0,0,1,30.456,52.821Z" transform="translate(-2.229 -9.338)" fill="#b5b9c5"/>
    <path id="Tracé_500" data-name="Tracé 500" d="M26.971,77.592H19.3a.714.714,0,0,1-.734-.653L18,72.616a.706.706,0,0,1,.734-.816h8.893a.706.706,0,0,1,.734.816l-.571,4.324A.878.878,0,0,1,26.971,77.592Z" transform="translate(-3.313 -13.224)" fill="#979fa6"/>
    <path id="Tracé_501" data-name="Tracé 501" d="M0,8.077S-.49,20.559,13.705,22.109,26.759,40.791,26.759,40.791s1.795,12.564,12.4,12.564V5.711A5.676,5.676,0,0,0,33.448,0H5.71A5.676,5.676,0,0,0,0,5.711Z" transform="translate(0)" fill="#fff" opacity="0.25"/>
    <circle id="Ellipse_315" data-name="Ellipse 315" cx="1.305" cy="1.305" r="1.305" transform="translate(6.2 4.813)" fill="#acb2b8"/>
    <rect id="Rectangle_1073" data-name="Rectangle 1073" width="1.061" height="4.161" transform="translate(10.768 3.998)" fill="#acb2b8"/>
    <rect id="Rectangle_1074" data-name="Rectangle 1074" width="1.061" height="4.161" transform="translate(12.971 3.998)" fill="#acb2b8"/>
    <rect id="Rectangle_1075" data-name="Rectangle 1075" width="1.061" height="4.161" transform="translate(15.092 3.998)" fill="#acb2b8"/>
    <path id="Tracé_502" data-name="Tracé 502" d="M15.811,87.6H10.753a.643.643,0,0,1-.653-.653V84.253a.643.643,0,0,1,.653-.653h5.058a.643.643,0,0,1,.653.653v2.692C16.545,87.271,16.219,87.6,15.811,87.6Z" transform="translate(-2.189 -15.397)" fill="#979fa6"/>
    <path id="Tracé_503" data-name="Tracé 503" d="M26.211,87.6H21.153a.643.643,0,0,1-.653-.653V84.253a.643.643,0,0,1,.653-.653h5.058a.643.643,0,0,1,.653.653v2.692A.7.7,0,0,1,26.211,87.6Z" transform="translate(-4.104 -15.397)" fill="#979fa6"/>
    <path id="Tracé_504" data-name="Tracé 504" d="M36.511,87.6H31.453a.643.643,0,0,1-.653-.653V84.253a.643.643,0,0,1,.653-.653h5.058a.643.643,0,0,1,.653.653v2.692A.7.7,0,0,1,36.511,87.6Z" transform="translate(-6.001 -15.397)" fill="#979fa6"/>
    <path id="Tracé_505" data-name="Tracé 505" d="M15.811,95.5H10.753a.643.643,0,0,1-.653-.653V92.153a.643.643,0,0,1,.653-.653h5.058a.643.643,0,0,1,.653.653v2.692C16.545,95.253,16.219,95.5,15.811,95.5Z" transform="translate(-2.189 -16.852)" fill="#979fa6"/>
    <path id="Tracé_506" data-name="Tracé 506" d="M26.211,95.5H21.153a.643.643,0,0,1-.653-.653V92.153a.643.643,0,0,1,.653-.653h5.058a.643.643,0,0,1,.653.653v2.692A.643.643,0,0,1,26.211,95.5Z" transform="translate(-4.104 -16.852)" fill="#979fa6"/>
    <path id="Tracé_507" data-name="Tracé 507" d="M36.511,95.5H31.453a.643.643,0,0,1-.653-.653V92.153a.643.643,0,0,1,.653-.653h5.058a.643.643,0,0,1,.653.653v2.692A.643.643,0,0,1,36.511,95.5Z" transform="translate(-6.001 -16.852)" fill="#979fa6"/>
    <path id="Tracé_508" data-name="Tracé 508" d="M15.811,103.5H10.753a.643.643,0,0,1-.653-.653v-2.692a.643.643,0,0,1,.653-.653h5.058a.643.643,0,0,1,.653.653v2.692C16.545,103.171,16.219,103.5,15.811,103.5Z" transform="translate(-2.189 -18.325)" fill="#979fa6"/>
    <path id="Tracé_509" data-name="Tracé 509" d="M26.211,103.5H21.153a.643.643,0,0,1-.653-.653v-2.692a.643.643,0,0,1,.653-.653h5.058a.643.643,0,0,1,.653.653v2.692A.7.7,0,0,1,26.211,103.5Z" transform="translate(-4.104 -18.325)" fill="#979fa6"/>
    <path id="Tracé_510" data-name="Tracé 510" d="M36.511,103.5H31.453a.643.643,0,0,1-.653-.653v-2.692a.643.643,0,0,1,.653-.653h5.058a.643.643,0,0,1,.653.653v2.692A.7.7,0,0,1,36.511,103.5Z" transform="translate(-6.001 -18.325)" fill="#979fa6"/>
    <path id="Tracé_511" data-name="Tracé 511" d="M16.811,111.5H11.753a.643.643,0,0,1-.653-.653v-2.692a.643.643,0,0,1,.653-.653h5.058a.643.643,0,0,1,.653.653v2.692C17.545,111.171,17.219,111.5,16.811,111.5Z" transform="translate(-2.373 -19.799)" fill="#979fa6"/>
    <path id="Tracé_512" data-name="Tracé 512" d="M26.211,111.5H21.153a.643.643,0,0,1-.653-.653v-2.692a.643.643,0,0,1,.653-.653h5.058a.643.643,0,0,1,.653.653v2.692A.7.7,0,0,1,26.211,111.5Z" transform="translate(-4.104 -19.799)" fill="#979fa6"/>
    <path id="Tracé_513" data-name="Tracé 513" d="M35.511,111.5H30.453a.643.643,0,0,1-.653-.653v-2.692a.643.643,0,0,1,.653-.653h5.058a.643.643,0,0,1,.653.653v2.692A.7.7,0,0,1,35.511,111.5Z" transform="translate(-5.817 -19.799)" fill="#979fa6"/>
    <path id="Tracé_514" data-name="Tracé 514" d="M35.541,13.5H5.6v7.424A16.324,16.324,0,0,0,14.737,24.6c14.277,1.55,13.135,18.682,13.135,18.682a18.94,18.94,0,0,0,4.161,9.056h3.508Z" transform="translate(-1.032 -2.486)" fill="#fff" opacity="0.51"/>
  </g>
</svg>
